<svg viewBox="0 0 14 14" xmlns="http://www.w3.org/2000/svg"><path d="m12.7765 2.551h-4.02v.744h1.185v1.177h-1.185v.375h1.185v1.1785h-1.185v.3855h1.185v1.1145h-1.185v.4465h1.185v1.117h-1.185v.4465h1.185v1.1235h-1.185v.8195h4.02c.0635-.019.1165-.094.159-.224.0425-.131.0645-.2375.0645-.318v-8.2495c0-.064-.022-.1025-.0645-.116-.0425-.013-.0955-.02-.159-.02zm-.5215 8.107h-1.9285v-1.1225h1.9285v1.1235zm0-1.569h-1.9285v-1.1175h1.9285zm0-1.564h-1.9285v-1.1095h1.9285v1.1105zm0-1.5h-1.9285v-1.177h1.9285v1.1775zm0-1.5595h-1.9285v-1.17h1.9285v1.1775zm-11.255-2.1v9.3005l7.08 1.2245v-11.781l-7.08 1.26zm4.1965 7.0355c-.027-.073-.154-.383-.379-.9315-.2245-.548-.36-.867-.3995-.958h-.0125l-.7595 1.8075-1.015-.0685 1.204-2.25-1.1025-2.25 1.035-.0545.684 1.7605h.0135l.7725-1.8405 1.0695-.0675-1.2735 2.435 1.3125 2.484-1.1495-.0675z"/></svg>